<?xml version="1.0" standalone="no"?>
<!DOCTYPE svg PUBLIC "-//W3C//DTD SVG 20010904//EN"
 "http://www.w3.org/TR/2001/REC-SVG-20010904/DTD/svg10.dtd">
<svg version="1.0" xmlns="http://www.w3.org/2000/svg"
 width="564.000000pt" height="671.000000pt" viewBox="0 0 564.000000 671.000000"
 preserveAspectRatio="xMidYMid meet">
<metadata>
Created by potrace 1.16, written by Peter Selinger 2001-2019
</metadata>
<g transform="translate(0.000000,671.000000) scale(0.100000,-0.100000)"
fill="#000000" stroke="none">
<path d="M2175 5625 c-27 -8 -92 -35 -144 -61 -76 -37 -110 -62 -176 -128
-117 -116 -164 -226 -152 -360 20 -214 21 -217 93 -320 42 -61 60 -79 151
-153 35 -27 39 -36 35 -65 -6 -47 -47 -88 -89 -88 -29 0 -36 -5 -48 -32 -15
-35 -56 -82 -98 -111 -18 -11 -32 -36 -43 -75 -25 -87 -34 -101 -96 -149 -68
-52 -88 -78 -88 -114 0 -17 -9 -32 -25 -43 -15 -10 -26 -29 -30 -53 -4 -21
-12 -54 -20 -73 -42 -108 -39 -238 8 -310 13 -19 26 -43 30 -52 3 -10 14 -18
24 -18 10 0 40 -11 68 -25 45 -23 58 -25 133 -20 131 8 210 58 236 150 13 44
26 62 70 100 33 28 61 62 70 86 16 40 17 41 56 34 21 -4 47 -2 58 4 26 14 36
1 52 -69 18 -77 35 -106 70 -118 40 -14 45 -32 25 -85 -17 -44 -17 -44 14
-105 27 -53 36 -63 68 -71 l38 -10 1 -76 c1 -41 2 -83 2 -92 1 -54 -6 -94 -22
-131 l-19 -41 43 -66 c44 -68 44 -69 25 -155 -4 -21 -3 -20 9 6 17 34 24 240
12 316 -5 29 -4 53 3 65 9 15 10 10 11 -25 0 -29 5 -45 15 -48 9 -4 12 -11 7
-18 -11 -15 -14 -158 -4 -174 9 -14 -30 -140 -46 -151 -5 -3 -12 -23 -16 -44
-4 -21 -14 -41 -22 -44 -7 -3 -14 -9 -14 -14 0 -4 6 -6 14 -3 9 3 15 -4 18
-21 5 -22 3 -25 -15 -19 -20 6 -21 6 -5 -17 8 -13 28 -27 44 -30 27 -6 27 -7
-8 -8 -28 -1 -41 5 -52 21 -9 12 -16 18 -16 12 0 -6 9 -23 21 -38 22 -28 11
-36 -15 -10 -9 8 -16 11 -16 5 0 -6 9 -20 20 -31 28 -28 25 -36 -6 -15 -24 16
-26 16 -22 -1 2 -10 13 -24 26 -30 12 -6 19 -14 15 -17 -11 -11 -22 -8 -43 13
-11 11 -20 15 -20 9 0 -6 14 -24 31 -40 17 -16 25 -29 18 -29 -7 0 -21 7 -31
17 -23 21 -28 15 -33 -35 -4 -35 0 -44 22 -62 21 -17 23 -20 7 -20 -24 0 -5
-19 26 -25 36 -7 39 -18 3 -13 l-32 4 25 -22 c13 -13 39 -30 57 -38 32 -14
112 -17 132 -4 6 4 17 3 25 -2 12 -7 11 -17 -3 -64 -15 -46 -16 -60 -6 -78 19
-35 11 -80 -20 -113 -41 -43 -43 -56 -46 -200 -3 -133 -22 -234 -53 -288 -13
-22 -14 -33 -5 -58 8 -20 9 -39 2 -55 -5 -14 -6 -43 -3 -65 5 -30 2 -44 -11
-59 -26 -29 -23 -63 25 -290 5 -25 11 -64 13 -87 4 -44 37 -107 45 -85 2 7 -4
19 -13 26 -11 8 -17 26 -17 52 0 21 -5 49 -10 61 -6 12 -7 30 -3 40 8 19 11
13 35 -84 6 -22 25 -63 43 -89 57 -86 135 -121 245 -110 42 3 61 2 56 -5 -11
-18 -56 -30 -128 -34 -73 -4 -94 3 -137 46 -10 10 -23 19 -29 19 -5 0 -16 12
-24 28 -8 15 -15 21 -16 13 0 -16 73 -87 111 -107 39 -20 184 -12 216 13 30
22 72 115 73 159 0 17 -7 51 -16 75 -8 24 -22 91 -30 149 -8 58 -18 116 -22
130 -13 43 -3 69 38 95 46 29 65 56 75 105 14 68 78 256 117 344 34 77 39 96
33 134 -8 51 21 222 40 237 17 14 29 55 16 55 -6 0 -11 -9 -11 -20 0 -27 -13
-25 -25 2 -8 19 -19 24 -62 26 -39 2 -53 7 -53 18 0 14 -2 14 -16 0 -17 -18
-54 -22 -54 -6 0 7 -6 7 -19 0 -27 -14 -123 -8 -129 8 -2 7 0 12 5 11 4 -1 30
-1 56 0 61 1 53 21 -9 21 -24 0 -44 3 -44 8 0 4 17 6 38 6 85 -4 106 -6 95
-11 -30 -11 -9 -20 47 -20 40 0 60 4 60 12 0 7 15 17 33 23 24 7 26 10 11 11
-12 1 -38 -6 -57 -14 -55 -23 -78 -18 -29 6 51 26 50 36 -1 14 -45 -19 -76
-19 -101 0 -16 12 -22 12 -29 2 -6 -8 -10 -9 -13 -1 -3 6 -18 10 -34 8 -23 -3
-30 1 -31 14 0 15 -1 15 -8 -2 -6 -16 -9 -16 -22 -5 -8 8 -25 15 -39 17 -18 1
-21 -1 -11 -7 7 -5 10 -14 6 -20 -14 -23 4 -61 29 -61 22 0 43 -26 31 -38 -3
-3 -5 0 -5 8 0 9 -4 9 -12 2 -16 -13 -72 32 -82 66 -8 23 8 32 17 10 3 -8 6
-6 6 5 1 9 -5 17 -13 17 -8 0 -18 4 -21 10 -4 6 1 7 11 3 15 -6 15 -2 -4 24
-27 39 -28 52 -2 28 41 -37 62 -42 102 -23 20 10 45 18 54 18 12 0 14 3 6 13
-9 10 -4 13 24 14 57 2 58 18 2 21 -64 4 -124 27 -163 62 -16 15 -45 35 -62
44 -35 18 -44 36 -15 31 9 -2 23 -4 30 -4 8 -1 10 -6 6 -14 -4 -6 2 -4 14 7
24 21 19 40 -9 33 -12 -3 -17 -1 -13 5 5 7 -5 9 -27 6 -24 -4 -38 0 -47 11
-12 14 -13 14 -7 -4 16 -46 15 -58 -2 -28 -19 34 -73 81 -73 64 0 -5 5 -13 11
-17 7 -4 10 -26 6 -60 -4 -39 -1 -61 12 -85 19 -35 17 -79 -5 -79 -7 0 -25 10
-40 23 -22 19 -27 32 -28 77 -1 30 3 66 10 80 7 14 17 37 23 51 8 21 16 26 51
27 25 1 39 -2 35 -8 -3 -6 -1 -10 4 -10 13 0 14 10 2 28 -4 7 -22 14 -40 14
-21 1 -28 4 -19 9 7 5 9 9 5 9 -11 0 13 43 29 53 8 4 14 14 14 22 0 7 3 15 8
17 10 4 76 98 95 134 9 16 24 38 34 49 10 11 34 45 52 75 18 30 42 65 53 77
19 21 22 21 71 6 67 -19 113 -48 133 -81 l15 -27 -6 30 -7 30 31 -29 c17 -17
31 -36 31 -43 0 -7 4 -13 8 -13 19 0 5 44 -20 62 -16 11 -26 23 -23 28 3 5 0
12 -6 16 -8 4 -9 3 -5 -4 12 -19 -5 -13 -79 28 -83 47 -80 53 5 10 81 -41 76
-30 -7 16 -38 21 -70 39 -72 40 -2 2 10 21 26 43 l30 41 49 -25 c66 -34 170
-110 167 -122 -1 -6 11 -23 27 -38 20 -20 30 -39 30 -59 l0 -30 -32 31 c-32
30 -118 88 -118 79 0 -2 28 -24 63 -49 77 -55 90 -71 83 -95 -6 -17 -10 -15
-46 16 -22 20 -37 38 -35 41 3 2 21 -11 40 -29 19 -19 35 -30 35 -24 0 8 -47
50 -95 83 -20 14 -20 14 -1 -7 14 -16 15 -22 5 -22 -7 0 11 -24 40 -54 52 -53
54 -56 61 -128 4 -42 16 -91 28 -115 24 -46 28 -84 12 -113 -7 -13 -5 -31 7
-64 15 -40 16 -51 4 -79 -7 -17 -20 -59 -28 -91 -14 -60 -52 -108 -98 -127
-20 -8 -20 -8 1 -8 12 -1 38 14 58 33 29 28 39 48 51 101 9 37 23 78 32 91 14
22 14 28 -1 69 -14 34 -15 52 -7 80 10 39 11 39 -24 130 -13 33 -24 87 -26
120 -4 95 0 199 8 192 3 -4 13 -1 21 6 12 10 17 8 26 -7 6 -11 22 -30 36 -43
64 -59 78 -78 89 -115 11 -35 19 -42 74 -67 36 -17 71 -41 84 -59 13 -17 33
-32 45 -34 20 -3 24 -10 28 -56 5 -47 11 -58 45 -87 28 -24 50 -34 75 -35 41
-1 64 -16 74 -48 4 -12 12 -22 17 -22 5 0 9 -35 9 -77 0 -59 -4 -81 -17 -96
-16 -17 -18 -37 -15 -157 4 -141 -11 -259 -43 -350 -13 -38 -13 -48 0 -87 17
-49 15 -56 -37 -127 -35 -49 -35 -57 2 -94 17 -17 30 -37 30 -44 0 -17 37 -52
63 -61 12 -4 6 6 -15 27 -51 52 -88 102 -88 118 0 32 15 26 45 -20 18 -26 78
-97 134 -157 92 -101 127 -148 84 -114 -16 13 -17 12 -4 -3 7 -10 9 -18 4 -18
-17 0 -54 33 -63 56 -6 14 -18 28 -27 31 -10 4 -26 16 -36 28 -18 20 -18 20
-7 -4 7 -13 21 -26 31 -28 11 -3 26 -21 34 -39 8 -20 25 -38 40 -44 14 -5 25
-16 25 -23 0 -16 41 -57 58 -57 6 0 17 -8 24 -18 17 -24 58 -47 58 -32 0 5 -6
10 -14 10 -8 0 -22 10 -30 22 -9 13 -31 29 -48 38 -35 16 -47 45 -28 64 9 8
11 7 8 -4 -2 -8 2 -14 8 -15 7 0 38 -19 69 -42 64 -48 107 -55 173 -28 l37 15
-29 -26 c-23 -21 -25 -25 -10 -22 27 5 84 96 84 135 0 39 -13 69 -62 148 -71
116 -103 195 -103 257 0 47 -3 57 -15 53 -54 -17 -126 -24 -163 -15 -26 5 -46
5 -53 -1 -15 -12 -74 -1 -96 19 -19 16 -25 37 -8 27 6 -3 10 -2 10 4 0 5 -7
14 -15 19 -10 5 -13 15 -9 25 3 9 10 14 15 11 5 -3 6 -11 2 -17 -4 -7 0 -6 10
2 20 16 22 22 5 18 -17 -3 -14 22 11 108 22 73 28 160 11 170 -5 3 -7 13 -4
23 5 13 4 14 -4 3 -7 -10 -11 -10 -14 -1 -2 7 -4 -6 -5 -28 -2 -32 1 -40 13
-35 7 3 14 0 14 -7 0 -6 -4 -8 -10 -5 -12 7 -13 -7 -2 -21 4 -5 -1 -1 -10 9
-13 14 -18 36 -18 74 0 31 4 52 9 48 12 -7 21 23 17 58 -3 33 -24 59 -21 28 1
-12 4 -24 8 -27 4 -4 7 -16 7 -27 0 -16 -3 -17 -15 -7 -19 16 -21 90 -1 90 7
0 25 9 39 20 31 25 48 26 40 3 -5 -14 -3 -15 6 -7 8 8 35 10 74 7 54 -5 66
-10 88 -37 25 -28 32 -31 85 -31 46 1 75 9 134 37 41 19 77 31 79 26 2 -5 -20
-59 -48 -118 -33 -70 -64 -157 -87 -247 -20 -76 -43 -151 -52 -168 -14 -28
-14 -29 2 -16 16 13 27 47 81 241 14 52 48 142 76 199 27 57 47 106 45 109 -3
2 2 18 10 33 11 23 12 34 3 50 -6 11 -8 23 -5 26 3 3 1 14 -4 24 -10 18 -11
17 -43 -1 -40 -24 -104 -47 -151 -54 -29 -5 -36 -3 -36 11 0 9 3 14 6 10 11
-11 136 41 166 70 29 28 30 28 45 8 15 -19 15 -19 9 5 -4 14 -8 32 -10 40 -3
22 -17 73 -23 90 -3 8 -5 25 -4 38 1 12 -4 25 -13 28 -10 4 -16 18 -16 39 0
19 -4 36 -9 39 -5 4 -16 27 -25 52 -14 41 -14 49 0 75 21 42 9 90 -38 149 -22
28 -35 50 -30 50 14 0 63 101 64 131 1 13 6 29 11 36 11 16 1 33 -21 33 -15 1
-14 3 3 18 23 19 32 67 15 77 -7 4 -9 -2 -4 -19 4 -17 2 -26 -6 -26 -6 0 -8 5
-4 11 3 6 1 14 -5 18 -6 4 -9 15 -5 24 3 9 10 14 15 11 5 -3 6 2 3 11 -6 14
-9 14 -27 -2 -20 -18 -20 -18 -3 15 10 18 15 39 12 45 -2 7 -5 4 -5 -5 -1 -23
-21 -24 -21 -1 0 14 -2 14 -21 -3 -22 -19 -22 -19 -14 6 16 51 16 54 -1 33 -9
-13 -26 -23 -37 -23 -20 0 -20 1 2 24 13 14 21 31 18 38 -4 9 -6 8 -6 -3 -1
-9 -12 -19 -24 -21 -22 -4 -23 -3 -14 23 17 43 -3 74 -68 104 -67 30 -71 31
-44 4 21 -21 23 -60 3 -66 -6 -2 -14 11 -18 28 -6 33 -32 69 -48 69 -4 0 1 -9
13 -21 11 -11 19 -30 17 -41 -5 -37 -23 -30 -35 15 -9 32 -19 47 -40 56 l-27
12 27 -27 c19 -19 27 -36 25 -53 -5 -45 -26 -30 -44 33 -5 16 -20 36 -34 44
l-25 16 23 -25 c30 -35 28 -93 -3 -71 -13 9 -36 73 -29 83 4 8 -95 89 -109 89
-4 0 -7 -10 -7 -22 0 -13 -4 -27 -8 -33 -8 -12 -42 -13 -60 -2 -6 5 -16 5 -22
2 -6 -3 -10 3 -10 14 0 16 6 21 25 21 14 0 26 6 26 13 1 6 2 17 4 22 1 6 3 17
3 24 3 21 19 1 25 -29 4 -23 4 -22 6 5 1 21 -7 35 -25 50 -24 19 -25 24 -15
46 12 23 12 23 -4 4 -16 -20 -17 -20 -33 4 -9 13 -38 47 -64 74 -32 33 -48 59
-48 76 0 26 -10 47 -42 92 -9 13 -20 41 -23 61 -7 36 -6 37 27 41 l33 4 -31 1
c-29 2 -32 5 -43 56 -7 30 -18 59 -26 66 -7 6 -11 19 -8 28 5 21 -13 72 -26
72 -5 0 -3 -13 4 -28 15 -30 10 -106 -7 -96 -5 3 -7 22 -4 43 4 26 0 46 -15
71 -18 31 -19 26 -3 -14 4 -11 -6 -18 -37 -26 -31 -9 -44 -9 -47 -1 -2 6 -8
11 -12 11 -17 0 18 -64 39 -72 11 -4 21 -12 21 -17 0 -16 -53 16 -67 41 -7 13
-12 33 -13 46 0 12 -16 64 -36 115 -20 51 -47 121 -60 157 -19 52 -24 59 -24
35 0 -17 9 -48 20 -70 11 -22 20 -45 20 -52 0 -8 12 -37 26 -65 14 -28 29 -71
34 -97 4 -25 22 -83 39 -128 16 -46 28 -83 24 -83 -3 0 0 -7 7 -15 7 -8 9 -15
4 -15 -4 0 -3 -5 4 -12 18 -18 16 -25 -30 -75 -42 -45 -36 -51 9 -10 26 23 29
22 37 -13 6 -24 2 -26 -118 -66 l-125 -42 -12 32 c-7 17 -14 34 -17 39 -2 4 2
7 10 7 17 0 167 70 150 70 -7 0 -29 -8 -50 -19 -20 -10 -50 -21 -67 -24 -16
-3 -38 -9 -47 -12 -10 -4 -18 -3 -18 2 0 6 18 15 39 22 57 17 114 41 108 47
-2 3 -26 -4 -53 -14 -63 -25 -112 -36 -99 -24 6 5 38 19 72 30 68 22 149 73
151 94 5 72 -1 95 -67 257 -38 96 -75 179 -82 185 -9 8 -9 6 0 -11 10 -20 7
-23 -53 -43 -35 -11 -72 -27 -82 -35 -10 -8 8 -3 41 10 90 35 115 40 115 22 0
-8 3 -22 6 -30 4 -11 -14 -22 -66 -43 -39 -15 -73 -31 -76 -35 -2 -4 24 4 58
18 86 34 98 37 98 24 0 -7 -19 -20 -42 -31 -51 -22 -43 -27 9 -5 20 9 40 12
44 8 12 -13 91 -224 86 -229 -3 -3 -38 -18 -78 -34 l-74 -29 -25 52 c-13 29
-25 54 -25 57 0 3 -6 14 -13 25 -12 19 -12 18 -6 -5 4 -14 17 -49 30 -79 14
-30 23 -55 22 -56 -9 -7 -146 -55 -156 -55 -12 0 -14 6 -16 45 -1 11 -7 19
-15 17 -8 -2 -11 3 -8 12 3 8 -1 17 -8 20 -15 6 -9 -17 20 -73 17 -33 24 -28
-87 -66 -44 -15 -68 -20 -68 -12 0 6 -6 2 -14 -8 -13 -18 -14 -17 -28 6 -96
158 -191 325 -190 333 3 33 11 50 27 62 22 16 51 18 58 4 3 -6 4 -5 3 2 -5 24
-50 20 -76 -7 -13 -14 -20 -25 -16 -25 4 0 0 -10 -8 -22 -20 -28 -20 -33 0
-53 11 -11 13 -19 6 -28 -5 -7 -12 -19 -15 -27 -2 -8 -3 -3 -1 12 4 32 -5 60
-16 53 -14 -9 -22 -80 -11 -106 7 -21 6 -28 -10 -38 -11 -6 -23 -10 -27 -7
-11 6 -9 -36 2 -52 4 -7 6 -16 3 -18 -6 -6 -67 80 -67 93 1 4 12 -5 26 -22 24
-28 24 -26 -5 26 l-31 56 65 76 c36 41 65 78 65 82 0 3 -32 -25 -71 -62 -38
-37 -74 -69 -79 -71 -5 -2 -14 6 -20 18 -9 18 -8 25 7 42 18 21 18 21 -6 9
-20 -11 -26 -10 -52 15 l-29 28 23 25 22 26 -26 -22 -25 -23 -22 30 -22 29 32
38 c33 37 27 37 -25 -1 l-28 -20 -41 41 -41 41 39 21 c29 15 34 20 18 21 -11
0 -29 -7 -40 -15 -24 -18 -35 -19 -31 -2 1 7 -6 11 -16 9 -9 -2 -20 3 -23 11
-2 7 -17 13 -32 12 -16 -2 -19 0 -7 2 11 3 23 10 27 16 9 15 -3 39 -17 33 -8
-3 -16 1 -19 9 -3 10 0 12 11 8 10 -4 14 -2 9 5 -3 6 -1 14 5 18 8 5 9 3 4 -6
-5 -8 -3 -11 6 -8 8 3 13 10 12 16 -3 12 55 57 64 49 2 -3 -9 -13 -27 -22 -18
-9 -30 -19 -27 -21 3 -3 31 11 63 32 64 41 246 129 362 175 168 67 459 116
481 81 6 -10 16 -9 50 3 52 18 77 19 87 3 4 -7 3 -8 -4 -4 -8 5 -10 2 -6 -9 6
-14 7 -14 18 0 11 15 13 15 28 -2 53 -61 166 -285 207 -411 42 -131 30 -132
-24 -2 -63 153 -178 394 -192 403 -5 3 18 -49 52 -116 33 -67 91 -200 130
-294 38 -95 71 -173 74 -173 8 0 71 136 71 152 0 28 42 80 76 94 23 10 39 25
45 43 6 15 21 34 34 41 13 7 22 17 19 22 -3 5 -12 1 -20 -9 -23 -31 -16 3 15
72 36 78 49 86 21 13 -23 -61 -20 -77 4 -18 9 22 21 40 27 40 6 0 8 9 4 23 -5
20 -5 20 5 4 9 -14 9 -22 -3 -35 -8 -9 -18 -28 -21 -42 -6 -22 -5 -21 10 5 10
17 19 25 21 18 6 -18 -16 -53 -32 -53 -8 0 -15 -5 -15 -11 0 -5 13 -2 29 7 17
10 28 21 26 25 -3 4 2 12 9 18 10 8 16 9 21 1 3 -5 1 -10 -6 -10 -7 0 -10 -3
-7 -6 3 -3 14 -1 25 4 10 6 32 16 50 22 17 7 39 20 47 29 23 25 55 171 45 199
-5 13 -6 34 -3 48 4 17 -1 36 -19 62 -15 20 -35 58 -47 84 -21 49 -52 78 -82
78 -9 0 -25 8 -35 18 -24 24 -157 107 -148 92 4 -7 39 -33 77 -58 39 -26 75
-50 82 -55 6 -4 23 -11 38 -17 18 -6 36 -26 53 -59 30 -59 30 -61 8 -61 -9 0
-13 -3 -9 -7 4 -5 18 -8 29 -8 13 0 21 -5 19 -14 -1 -7 2 -19 9 -27 19 -23 20
-123 3 -188 -19 -70 -34 -89 -86 -111 l-37 -15 -26 45 c-15 24 -32 43 -38 42
-11 -2 -62 81 -54 89 3 3 15 -13 28 -35 12 -22 26 -38 31 -35 5 3 1 15 -9 27
-17 20 -17 20 1 14 14 -6 17 -3 12 8 -4 11 1 15 17 15 12 0 29 4 37 10 12 8
12 10 -3 16 -14 5 -15 9 -6 20 12 14 3 19 -30 15 -8 -2 -10 2 -5 11 5 7 9 19
10 26 4 22 26 42 61 57 32 14 39 41 8 28 -12 -4 -15 4 -15 36 0 23 -4 41 -9
41 -4 0 -6 -11 -4 -24 3 -13 0 -32 -6 -43 -10 -17 -11 -16 -12 5 -1 12 -2 27
-3 32 -2 20 -28 28 -59 19 -16 -5 -34 -6 -40 -2 -6 3 -7 1 -3 -5 4 -7 3 -12
-3 -12 -5 0 -13 5 -16 10 -4 6 -11 8 -16 4 -5 -3 -9 -2 -8 3 1 4 0 22 -1 38
-2 26 -4 24 -15 -20 -15 -53 -42 -80 -88 -89 -44 -9 -77 -7 -77 4 0 5 6 7 13
4 7 -2 24 0 38 6 l24 10 -27 -3 c-15 -2 -25 0 -22 4 3 5 14 9 24 9 21 0 93 59
73 60 -7 0 -13 -5 -13 -11 0 -29 -153 -53 -190 -29 -13 8 -12 10 3 10 10 0 15
4 12 10 -7 11 57 1 65 -10 5 -8 50 6 50 15 0 3 -12 3 -27 0 -23 -4 -21 -2 7 9
39 16 26 22 -15 6 -28 -11 -75 -4 -75 11 0 5 8 9 19 9 10 0 24 7 31 15 8 10
21 13 33 9 16 -5 19 -3 13 12 -6 15 -2 14 18 -5 14 -14 28 -22 31 -19 3 2 -4
13 -15 23 -11 10 -20 23 -20 28 0 6 9 2 20 -8 11 -10 20 -14 20 -8 0 5 -9 18
-20 28 -11 10 -20 13 -20 7 0 -16 -16 -15 -33 2 -13 13 -17 12 -36 -8 -11 -12
-21 -28 -21 -34 0 -7 -13 -12 -30 -12 -27 0 -30 3 -30 29 0 17 10 42 24 57
l23 28 -43 23 c-24 13 -55 23 -69 23 -18 0 -24 4 -19 13 6 9 5 9 -8 0 -18 -16
-32 -5 -17 14 9 10 8 13 -4 13 -25 0 -32 22 -12 37 21 15 8 18 -15 3 -10 -6
-22 -4 -39 6 -13 9 -42 18 -65 20 -22 3 -46 11 -52 19 -6 8 -14 12 -17 8 -4
-3 -2 -12 4 -20 9 -10 6 -13 -12 -11 -13 1 -39 -2 -56 -6 -37 -9 -44 6 -18 40
19 25 19 43 0 24 -8 -9 -17 -30 -21 -47 -6 -30 -4 -32 30 -39 20 -3 55 -3 78
0 35 6 43 3 64 -19 62 -67 49 -96 -44 -103 -66 -5 -85 -18 -80 -54 2 -16 18
-30 51 -47 42 -21 53 -22 85 -13 33 10 41 9 73 -13 20 -13 52 -28 70 -32 32
-9 33 -10 30 -57 -3 -49 9 -77 56 -127 l24 -26 -59 0 c-33 0 -65 -4 -71 -7 -7
-4 -19 -2 -27 5 -11 9 -21 9 -37 2 -12 -6 -35 -11 -52 -12 -16 -1 -45 -6 -63
-12 -25 -8 -37 -8 -45 0 -6 6 -19 11 -28 11 -12 0 -16 6 -12 19 3 10 0 22 -6
25 -7 4 -11 -1 -11 -12 0 -11 -6 -19 -12 -19 -22 2 -102 -15 -113 -24 -13 -10
-205 -52 -211 -46 -6 5 148 52 163 49 6 -2 14 2 18 8 10 16 -12 12 -133 -21
-100 -28 -111 -33 -100 -48 12 -14 11 -15 -5 -2 -16 13 -20 13 -28 0 -7 -12
-9 -12 -9 1 -1 13 -2 13 -13 -1 -18 -23 -56 -41 -73 -35 -10 4 -12 2 -8 -6 5
-8 2 -9 -10 -5 -11 5 -15 3 -10 -5 5 -8 2 -9 -10 -5 -11 5 -15 3 -10 -5 5 -7
2 -9 -7 -6 -19 7 -226 -97 -211 -106 6 -4 22 -2 34 4 21 10 21 10 -2 -9 -26
-21 -45 -28 -35 -12 3 5 1 12 -5 16 -11 7 -100 -53 -100 -67 0 -5 -4 -7 -8 -4
-5 3 -21 -6 -38 -20 -16 -14 -22 -22 -14 -18 11 5 12 4 4 -5 -10 -11 -44 -6
-44 8 1 18 174 126 325 202 229 115 455 187 592 190 39 1 43 2 22 9 -28 8
-115 -6 -247 -39 -98 -26 -185 -58 -309 -117 -110 -51 -130 -56 -259 -54 -71
1 -93 -2 -103 -14 -19 -23 -40 -20 -67 10 -35 37 -32 64 9 65 29 1 28 2 -10 8
-24 4 -44 9 -46 12 -14 17 -57 100 -57 108 0 28 24 5 49 -48 l27 -58 100 -2
c150 -3 339 35 493 99 161 66 308 176 332 248 12 36 12 36 21 12 6 -14 16 -56
24 -95 l14 -70 -5 62 c-4 58 -19 104 -44 143 -6 8 -22 40 -36 71 -31 69 -91
149 -111 149 -8 0 -13 4 -9 9 3 5 -14 25 -37 44 -52 41 -86 59 -43 23 36 -31
27 -32 -42 -6 -243 92 -608 -73 -704 -317 -17 -44 -23 -81 -24 -153 -1 -105 2
-101 -71 -85 -56 12 -40 184 28 304 80 141 263 265 453 306 36 8 48 13 30 13
-16 0 -52 -6 -80 -13z m305 -56 c141 -23 283 -146 295 -255 1 -16 8 -30 14
-32 13 -4 15 -22 2 -22 -5 0 -17 8 -27 18 -10 9 -21 17 -25 17 -4 0 -16 8 -26
18 -43 43 -139 106 -154 102 -10 -4 -18 1 -21 13 -5 18 -38 27 -38 10 0 -5 -9
-4 -19 2 -25 13 -34 13 -26 0 3 -6 -1 -7 -9 -4 -9 3 -14 10 -11 14 3 5 1 11
-4 14 -5 4 -12 2 -16 -4 -3 -5 -19 -8 -35 -6 -17 2 -30 -1 -30 -6 0 -5 -5 -6
-10 -3 -16 10 -171 13 -196 4 -13 -5 -27 -3 -34 4 -10 10 -12 8 -7 -5 7 -21
-3 -23 -22 -5 -12 10 -13 9 -7 -7 5 -16 4 -17 -9 -6 -14 12 -14 15 1 31 9 10
21 16 25 13 5 -3 9 -1 9 4 0 10 66 42 100 49 14 2 32 10 40 18 36 33 130 42
240 24z m710 -178 c0 -9 18 -27 41 -41 32 -20 39 -30 36 -48 -2 -12 -2 -21 0
-18 6 6 43 -31 43 -43 0 -5 7 -16 15 -24 13 -13 10 -16 -20 -21 -37 -7 -88 11
-153 55 -22 14 -32 17 -30 8 2 -10 -9 -15 -37 -17 -53 -3 -108 29 -103 61 3
23 25 27 62 12 14 -6 17 -5 12 3 -5 8 2 12 19 12 30 0 75 41 75 68 0 10 3 22
7 25 9 10 33 -13 33 -32z m558 -272 c-2 -4 5 -15 14 -25 14 -16 14 -22 4 -36
-18 -25 -26 -22 -26 7 0 14 -4 25 -10 25 -5 0 -10 -10 -10 -21 0 -34 -56 -124
-96 -154 -30 -23 -43 -26 -76 -22 -50 7 -81 32 -58 47 8 5 29 10 46 10 17 0
38 8 45 17 12 15 12 15 -4 6 -19 -10 -64 -6 -71 6 -3 4 8 7 22 6 19 0 26 5 25
15 -2 9 10 23 25 32 30 19 13 25 -21 6 -28 -15 -77 -20 -77 -8 0 5 9 7 21 5
16 -3 18 -1 10 9 -8 9 -2 17 25 29 44 21 50 21 33 0 -12 -14 -11 -14 13 1 15
10 25 23 22 28 -4 7 0 7 12 0 14 -7 31 -5 64 9 43 17 74 21 68 8z m-438 -177
c13 -10 31 -39 42 -63 18 -42 18 -43 12 -9 -3 19 -14 47 -25 63 -16 22 -17 27
-4 27 8 0 15 -4 15 -10 0 -5 19 -22 43 -36 38 -24 52 -39 46 -46 -1 -2 8 -14
19 -28 164 -194 177 -221 123 -250 -19 -10 -21 -8 -21 22 -1 18 -7 44 -15 58
l-15 25 7 -30 c10 -42 6 -86 -9 -102 -11 -10 -13 -8 -14 13 -2 23 -44 97 -52
90 -1 -2 7 -22 19 -45 21 -41 21 -53 5 -129 -15 -70 -29 -76 -40 -21 -11 55
-74 205 -144 342 -37 73 -68 135 -70 140 -7 15 57 6 78 -11z m-1435 -210 c17
-2 36 -10 43 -19 6 -9 12 -12 12 -5 0 8 7 9 27 1 24 -9 30 -7 48 15 14 18 33
26 67 30 26 3 50 1 53 -4 3 -6 2 -10 -4 -10 -5 0 -45 -26 -89 -59 -65 -48 -82
-57 -98 -48 -31 16 -114 110 -107 121 4 6 9 4 12 -5 3 -8 20 -15 36 -17z m257
-248 c71 -63 114 -109 214 -233 79 -99 105 -141 67 -110 -20 17 -20 18 50 -88
46 -69 71 -97 47 -52 -21 38 -3 30 25 -12 29 -45 28 -48 -28 -73 -26 -12 -31
-10 -63 19 -19 18 -48 53 -64 79 -17 26 -34 45 -39 42 -5 -3 -8 2 -7 11 0 10
-4 18 -11 18 -6 0 -15 4 -20 9 -5 5 -3 6 5 2 18 -11 15 1 -10 34 -11 16 -26
26 -31 23 -6 -3 -7 -2 -4 4 8 12 -21 55 -33 48 -5 -3 -12 0 -16 6 -5 8 -3 9 6
4 26 -16 4 16 -73 105 -48 56 -83 88 -90 84 -7 -4 -9 -4 -5 1 11 11 -11 35
-26 29 -7 -3 -21 6 -32 18 -14 17 -14 19 -2 9 9 -7 22 -10 28 -6 6 4 20 -1 31
-11 10 -9 19 -15 19 -12 0 2 -14 17 -32 34 -20 19 -29 23 -25 12 5 -15 4 -16
-14 -5 -19 12 -19 12 6 35 39 33 68 28 127 -24z m-146 -56 c5 -5 7 -14 13 -48
1 -3 5 1 9 8 6 8 30 -10 80 -62 64 -66 85 -96 65 -96 -3 0 -37 32 -74 70 -38
39 -73 70 -79 70 -6 0 6 -15 26 -32 68 -59 205 -221 230 -270 24 -48 34 -59
30 -35 -3 20 -24 53 -77 122 -28 37 -48 70 -44 73 9 9 54 -45 126 -151 48 -72
57 -92 49 -107 -13 -24 5 -37 19 -13 8 15 11 16 15 3 3 -8 5 -28 3 -45 -2 -26
1 -30 19 -27 30 4 61 -43 59 -88 -2 -42 4 -57 17 -39 5 9 6 5 2 -13 -8 -37 4
-54 22 -31 12 16 13 14 8 -17 -6 -33 -6 -34 9 -15 13 16 16 17 17 5 0 -9 -5
-21 -11 -27 -7 -7 -7 -13 -1 -17 6 -3 13 3 17 14 3 11 10 20 15 20 12 0 20
-28 13 -46 -5 -13 -7 -13 -14 -2 -5 7 -9 9 -9 3 0 -5 5 -17 10 -25 8 -13 11
-12 24 5 15 19 15 18 9 -14 -4 -24 -3 -32 5 -27 9 5 9 0 2 -20 -9 -22 -8 -25
6 -20 11 4 18 0 21 -14 3 -11 10 -20 17 -21 6 0 2 -4 -9 -9 -24 -10 -80 -2
-117 17 -29 14 -39 29 -13 19 9 -3 15 0 15 10 0 8 -4 12 -10 9 -5 -3 -10 3
-10 14 0 12 -9 30 -20 41 -11 11 -15 20 -9 20 8 0 8 5 -1 15 -15 18 1 20 18 3
8 -8 12 -9 12 -1 0 6 -13 17 -29 24 -16 7 -28 16 -26 20 3 3 -5 15 -16 25 -19
17 -20 17 -13 -2 10 -29 -10 -5 -24 30 -10 23 -10 27 0 24 7 -3 22 -2 33 2 19
7 19 7 -4 19 -19 11 -25 11 -33 0 -7 -10 -8 -8 -5 9 3 14 1 22 -6 21 -27 -3
-32 3 -35 46 -2 25 -7 56 -12 68 -8 18 -10 16 -9 -18 4 -112 -11 -145 -17 -38
-8 121 -52 208 -176 349 -87 98 -139 142 -195 165 l-48 20 45 -4 c45 -5 45 -5
15 9 -16 7 -40 13 -53 14 -14 0 -21 4 -16 11 7 11 108 8 120 -3z m-100 -73
c-7 -18 10 -20 18 -2 3 8 8 7 16 -5 6 -10 22 -18 35 -18 15 0 42 -16 66 -37
35 -32 38 -38 23 -43 -15 -5 -12 -9 14 -18 33 -11 89 -68 84 -85 -1 -5 2 -6 7
-3 12 8 54 -51 46 -64 -3 -5 1 -10 9 -10 19 0 54 -92 60 -162 3 -29 3 -44 0
-33 -11 37 -24 40 -25 7 -2 -53 -3 -55 -30 -58 -40 -4 -103 -39 -132 -73 -13
-16 -28 -27 -31 -23 -4 3 -4 0 -1 -9 3 -9 -7 -26 -26 -44 -17 -17 -29 -25 -28
-20 1 6 -2 21 -7 35 -14 38 -9 113 11 143 9 15 32 32 50 39 19 6 32 15 29 19
-2 5 8 15 23 23 15 8 24 15 20 16 -19 1 -53 -22 -118 -79 -25 -23 -61 -44 -80
-47 -55 -11 -69 -22 -69 -56 0 -17 -7 -40 -17 -50 -9 -10 -12 -18 -6 -18 14 0
39 31 48 58 7 24 35 45 74 57 23 7 23 6 17 -36 -4 -24 -6 -61 -6 -83 0 -21 -9
-56 -20 -78 -11 -22 -15 -36 -8 -32 6 4 2 -8 -10 -28 -12 -19 -18 -39 -14 -43
4 -5 1 -5 -5 -1 -9 5 -13 0 -14 -16 l-2 -23 -4 23 c-3 14 3 32 13 43 26 29 1
23 -26 -6 -25 -27 -91 -50 -121 -42 -11 3 -17 1 -13 -4 9 -15 88 -10 113 8 18
12 22 13 16 2 -5 -8 -17 -20 -27 -27 -10 -7 -18 -19 -18 -26 0 -18 -22 -26
-71 -26 -39 0 -53 15 -24 26 22 9 12 18 -50 48 -32 16 -55 34 -55 43 0 13 6
11 27 -8 19 -17 25 -19 20 -7 -5 15 -2 16 20 7 31 -11 104 -9 96 4 -3 4 -17 7
-31 6 -33 -4 -67 14 -58 29 4 6 13 9 21 6 8 -4 17 0 20 7 3 9 19 14 43 13 20
-1 50 5 65 13 35 18 107 82 107 95 0 6 -17 -6 -37 -26 -53 -51 -119 -69 -160
-43 -19 12 -16 27 5 27 20 0 42 18 42 34 0 6 -5 5 -11 -1 -6 -6 -17 -10 -23
-8 -6 2 -23 6 -38 9 -47 10 -97 152 -51 144 10 -2 28 -15 41 -30 13 -16 30
-28 38 -28 7 0 20 -12 28 -27 8 -16 15 -24 16 -20 0 5 -5 17 -11 29 -9 16 -7
24 10 42 12 12 21 26 21 32 0 5 -7 1 -14 -8 -7 -10 -24 -19 -36 -20 -19 -2
-29 6 -47 39 -33 59 -37 105 -13 153 11 22 20 50 20 62 0 31 56 98 82 98 22 0
47 -26 48 -48 0 -8 -15 -28 -32 -44 -27 -25 -29 -30 -11 -24 18 6 21 4 16 -16
-4 -18 -3 -20 6 -8 6 8 11 25 11 37 0 12 4 24 9 27 5 3 9 33 8 67 0 49 -2 57
-11 42 -6 -10 -24 -19 -41 -21 -51 -6 -105 -75 -105 -136 0 -20 -8 -29 -32
-39 -18 -8 -39 -21 -47 -30 -7 -9 -17 -14 -22 -11 -5 3 -9 2 -8 -3 4 -22 -3
-33 -20 -33 -10 0 -29 -9 -43 -19 -22 -18 -24 -18 -24 -1 0 10 5 16 12 13 6
-2 14 3 17 11 4 9 14 16 24 16 15 0 16 2 3 10 -13 9 -13 10 0 10 8 0 21 9 28
20 12 19 11 20 -15 15 -16 -3 -22 -2 -15 1 6 3 12 10 12 15 0 6 -6 7 -12 3
-25 -13 107 118 135 134 15 9 27 20 27 25 0 5 -7 4 -15 -3 -13 -11 -14 -8 -8
21 3 19 9 35 13 37 4 1 5 13 3 25 -6 32 31 74 78 88 23 8 35 15 28 20 -19 11
0 29 33 29 23 0 29 -4 24 -15z m738 -291 c33 -52 66 -115 66 -125 0 -4 -15
-13 -32 -20 -18 -7 -36 -14 -39 -16 -4 -2 -9 9 -12 24 -7 34 -27 61 -47 65
-15 3 -60 60 -60 76 0 10 58 40 80 41 8 1 28 -20 44 -45z m972 -185 c5 -26 19
-49 50 -79 41 -39 59 -70 32 -54 -39 23 -91 70 -99 90 -4 13 -14 24 -21 23
-10 0 -10 -2 -1 -5 17 -7 5 -34 -12 -28 -8 3 -22 1 -32 -6 -16 -10 -15 -10 7
-6 22 5 21 4 -5 -9 -33 -16 -56 -19 -53 -7 1 4 -6 23 -14 42 -12 26 -17 30
-18 15 -1 -19 -1 -19 -13 1 -9 16 -17 19 -32 13 -19 -7 -19 -8 3 -8 21 -1 24
-4 26 -33 1 -7 7 -19 15 -27 11 -13 11 -16 -5 -22 -31 -12 -39 -10 -18 6 18
13 17 14 -11 6 -60 -18 -126 -43 -122 -47 2 -2 18 1 36 7 18 6 34 9 36 7 4 -3
-172 -70 -225 -86 -13 -3 -13 -3 0 8 13 10 12 11 -3 6 -10 -3 -21 -6 -23 -6
-3 0 -3 -4 0 -9 6 -9 -142 -76 -150 -68 -3 2 16 12 41 22 26 9 44 19 42 22 -3
2 -45 -12 -93 -32 -117 -49 -123 -51 -94 -25 22 19 22 20 3 11 -25 -13 -43
-14 -43 -3 0 4 19 15 42 24 23 10 39 21 36 24 -3 3 -24 -4 -46 -15 -41 -21
-71 -12 -31 9 11 7 18 14 16 17 -3 2 -15 0 -26 -7 -12 -6 -21 -7 -21 -3 0 4
47 28 105 52 58 24 103 46 101 48 -2 3 -52 -16 -111 -41 -59 -25 -109 -46
-111 -46 -11 0 -2 31 10 36 8 3 12 12 10 19 -13 32 45 87 69 66 9 -7 27 -1 62
21 27 17 65 32 85 34 19 2 43 4 53 6 11 2 26 -7 34 -19 13 -20 13 -23 -14 -38
-15 -9 -21 -14 -13 -11 8 3 91 30 183 60 92 31 174 56 182 56 8 0 15 5 15 11
0 8 6 7 17 -2 14 -12 16 -12 11 1 -3 11 7 18 35 27 44 13 58 6 77 -39 10 -22
10 -22 5 4 -3 14 -8 34 -11 45 -5 16 -4 16 10 -2 9 -11 19 -36 22 -56z m89
-151 c20 -9 25 -18 25 -50 0 -21 -5 -38 -11 -38 -5 0 -7 -4 -4 -10 11 -18 -7
-35 -19 -18 -16 22 -55 40 -68 32 -6 -4 -8 -3 -5 3 4 6 -11 22 -33 37 -22 14
-47 41 -56 58 l-16 33 26 -27 c35 -36 43 -36 17 0 l-20 29 27 20 27 21 43 -39
c23 -22 53 -45 67 -51z m-210 -7 c31 -41 141 -121 166 -121 19 0 59 -29 42
-30 -19 0 -16 -20 2 -20 20 0 40 -43 31 -67 -6 -15 -9 -14 -20 12 -8 17 -26
41 -41 55 l-27 25 26 -39 c27 -40 33 -66 17 -66 -5 0 -14 15 -20 33 -13 39
-48 80 -61 72 -5 -3 -11 -1 -15 5 -3 5 -19 10 -34 10 -22 0 -29 7 -39 33 -7
19 -23 44 -37 57 l-25 23 -91 -29 c-86 -29 -91 -29 -100 -12 -8 15 -5 20 16
28 13 5 32 7 42 3 10 -4 14 -2 10 4 -7 11 85 61 114 62 8 1 28 -17 44 -38z
m12 -90 c13 -25 20 -47 16 -50 -3 -3 -8 0 -11 8 -4 11 -6 11 -13 0 -6 -11 -11
-10 -27 4 -26 24 -47 21 -72 -10 -18 -23 -21 -36 -16 -70 6 -47 -4 -55 -28
-21 -28 40 -17 93 28 131 13 11 15 17 6 14 -27 -7 -60 -68 -60 -111 0 -36 6
-48 39 -80 22 -21 44 -35 50 -32 6 4 11 2 11 -5 0 -6 -8 -9 -19 -6 -10 2 -25
0 -34 -5 -13 -7 -15 -5 -10 8 4 12 3 15 -6 10 -6 -4 -9 -16 -6 -25 4 -15 -8
-23 -67 -44 -40 -14 -86 -29 -103 -33 -16 -4 -36 -11 -42 -17 -22 -16 -14 3
12 35 40 48 27 140 -24 168 -52 27 -136 -5 -165 -63 l-13 -29 -6 34 c-7 49 6
64 80 89 38 12 106 38 153 57 165 68 235 91 270 89 31 -2 38 -8 57 -46z m-704
-26 c14 -25 21 -47 16 -51 -5 -3 -6 -10 -3 -16 4 -7 2 -8 -5 -4 -6 4 -28 -2
-48 -14 -29 -17 -38 -18 -44 -8 -7 10 -9 10 -9 -2 -1 -9 -14 0 -35 24 -19 21
-32 43 -29 48 5 8 113 67 126 68 3 0 18 -20 31 -45z m351 28 c4 -5 13 -8 19
-8 5 0 12 -5 14 -10 3 -11 -14 -19 -137 -62 -41 -14 -90 -37 -109 -51 -31 -23
-32 -23 -22 -3 10 17 9 21 -3 21 -8 0 -17 -4 -21 -10 -3 -5 -12 -7 -20 -3 -11
4 -13 1 -9 -11 3 -9 11 -13 18 -9 6 4 4 -1 -4 -12 -14 -16 -13 -17 8 -11 31
10 28 -2 -5 -15 -32 -12 -53 2 -34 24 6 8 9 22 5 31 -4 11 2 19 17 25 13 6 78
32 144 60 133 55 129 54 139 44z m316 -55 c27 -20 33 -20 70 -8 22 7 43 10 46
7 4 -4 9 -28 12 -55 3 -37 0 -52 -13 -65 -22 -22 -38 -12 -24 15 8 14 8 18 0
14 -7 -5 -9 2 -5 22 4 20 1 32 -12 43 -16 13 -17 12 -7 -5 6 -10 8 -27 6 -36
-5 -20 -40 -33 -49 -19 -3 6 -12 5 -22 -3 -12 -10 -14 -10 -8 0 4 6 2 12 -3
12 -6 0 -11 -5 -11 -10 0 -6 -11 -3 -25 6 -29 19 -34 64 -9 88 20 20 19 20 54
-6z m-643 -190 c-7 -118 -14 -158 -28 -158 -5 0 -6 8 -3 18 5 15 4 15 -5 1 -7
-11 -20 -14 -40 -11 -27 4 -30 7 -26 31 5 26 5 26 -5 2 -18 -40 -22 -17 -14
84 5 75 10 95 20 91 8 -3 14 -1 14 4 0 8 51 40 64 40 3 0 7 -17 9 -37 l4 -38
1 43 c1 23 5 42 8 42 4 0 4 -51 1 -112z m1078 32 c0 -1 19 -4 42 -6 35 -3 50
-11 80 -45 58 -63 71 -88 88 -160 19 -83 38 -133 30 -76 -4 21 -9 46 -12 55
-9 25 54 -35 88 -85 16 -23 43 -79 61 -125 17 -46 47 -102 66 -126 44 -54 55
-120 25 -160 -10 -15 -23 -34 -28 -42 -8 -13 -7 -13 8 -1 10 8 19 12 20 10 15
-23 48 -123 44 -134 -8 -20 -73 -51 -155 -74 -93 -26 -112 -37 -118 -71 -5
-21 -15 -32 -37 -39 -39 -14 -44 -14 -29 1 21 21 13 30 -23 26 l-35 -4 37 39
38 40 -55 -37 c-45 -29 -56 -33 -63 -21 -8 16 14 69 35 81 10 6 10 4 0 -8 -9
-12 -10 -18 -2 -23 6 -4 9 -14 5 -24 -3 -9 6 -3 20 13 26 30 32 41 16 32 -14
-9 -22 36 -9 51 6 8 9 16 6 18 -3 3 -30 -20 -62 -52 l-56 -56 -29 27 c-16 16
-29 36 -29 45 0 9 -2 25 -6 36 -5 14 -3 13 7 -4 l14 -23 25 26 c13 15 37 28
52 30 15 1 32 8 39 15 9 9 6 11 -13 7 -14 -2 -26 -5 -27 -5 -2 -1 -6 -1 -10
-2 -5 -1 -15 -5 -24 -9 -8 -5 -21 -4 -30 2 -11 8 -11 9 3 5 9 -3 18 -2 20 2 2
4 28 18 58 29 l55 22 -61 -6 c-59 -6 -62 -5 -70 17 -4 13 -7 28 -6 32 1 5 -2
6 -8 2 -5 -3 -10 -1 -10 4 0 6 -11 11 -24 11 -48 0 -84 13 -95 34 -8 17 -10
10 -5 -34 3 -30 13 -63 21 -72 9 -10 11 -18 6 -18 -20 0 -36 31 -40 77 -4 53
-16 71 -58 89 -16 7 -23 13 -15 14 8 0 30 -9 48 -20 17 -11 32 -17 32 -15 0 3
9 1 20 -5 11 -6 17 -16 14 -22 -4 -7 -3 -8 5 -4 6 4 9 11 6 16 -7 12 21 20 32
9 7 -7 15 -6 24 3 16 15 27 16 49 5 8 -5 4 1 -9 12 -12 12 -27 19 -31 16 -5
-3 -21 0 -37 7 -45 19 -154 36 -210 33 l-52 -3 -10 45 c-8 42 -7 48 12 64 32
26 44 23 19 -4 -22 -23 -22 -24 -2 -22 11 1 26 7 32 13 17 17 29 15 22 -3 -7
-17 13 -20 36 -5 13 9 13 10 0 10 -8 0 -28 16 -43 35 -15 19 -25 35 -22 35 15
0 101 -24 110 -30 6 -4 18 -6 28 -5 20 4 22 -6 5 -24 -7 -8 1 -5 17 5 l30 18
-20 -23 -20 -24 23 14 c12 8 22 19 22 25 0 6 -33 22 -72 36 -88 30 -93 44 -47
124 31 54 32 56 66 49 19 -3 42 -9 51 -11 14 -5 13 -2 -2 10 -11 9 -33 16 -48
16 l-29 0 17 33 c10 17 31 75 48 127 18 52 35 100 38 106 6 8 83 12 83 4z
m-214 -34 c-9 -21 -8 -26 4 -26 9 0 15 10 15 25 0 22 4 25 36 25 32 0 35 -2
28 -22 -4 -13 -8 -42 -9 -65 -2 -79 -109 -255 -229 -377 -28 -29 -43 -43 -33
-31 9 12 17 28 17 36 -1 11 -3 10 -13 -3 -9 -11 -18 -14 -27 -8 -9 6 -18 4
-23 -3 -5 -7 -6 -4 -2 8 4 11 8 28 9 37 1 10 5 21 9 24 12 12 8 26 -5 18 -7
-5 -8 -3 -3 7 7 11 6 11 -9 -1 -16 -13 -18 -12 -14 10 3 24 54 77 70 73 9 -3
76 110 112 190 15 31 30 57 35 57 5 0 14 14 21 30 15 37 25 34 11 -4z m-115
-3 c0 -10 -14 -26 -31 -36 -16 -10 -23 -16 -14 -13 9 2 22 -1 29 -7 8 -7 10
-7 7 -1 -3 6 9 18 28 27 34 16 35 16 35 -3 0 -12 -14 -29 -32 -41 -26 -16 -28
-20 -10 -16 21 5 20 0 -19 -74 -23 -43 -46 -79 -52 -79 -5 0 -26 -12 -46 -27
-37 -29 -81 -55 -81 -48 0 2 8 11 17 21 16 16 16 16 -7 9 -14 -4 -28 -13 -32
-19 -4 -6 -8 4 -8 22 0 31 12 42 25 22 3 -5 12 -10 18 -10 8 0 8 3 -2 9 -9 6
-10 11 -2 15 6 4 11 12 11 19 0 8 -3 8 -12 -1 -7 -7 -16 -12 -21 -12 -5 0 6
12 24 28 18 15 37 26 41 25 4 -2 8 2 8 8 0 5 3 8 8 5 4 -2 12 7 19 20 13 28
12 29 -30 8 -20 -11 -32 -13 -35 -6 -2 6 -11 9 -20 6 -15 -5 -15 -4 1 6 17 11
25 36 8 26 -5 -4 -7 3 -4 14 4 16 2 19 -11 14 -11 -4 -15 -2 -11 7 3 8 26 22
51 33 72 30 49 31 -41 2 -11 -4 7 7 39 24 69 35 66 34 66 15 0 -23 48 -19 62
5 16 25 26 26 24 3z m539 -8 c115 -40 193 -156 174 -259 -12 -66 -19 -73 -37
-35 -9 18 -42 60 -72 94 -31 33 -63 75 -70 94 -8 19 -29 54 -46 77 l-33 43 32
-3 c18 -2 41 -7 52 -11z m-825 -80 c0 -3 -12 -10 -27 -16 -16 -6 -23 -13 -16
-16 7 -2 20 0 30 5 22 13 63 -13 63 -40 0 -13 -12 -24 -39 -35 -30 -12 -37
-19 -34 -34 4 -12 13 -18 28 -17 13 1 21 6 19 10 -3 4 -3 8 0 8 11 0 37 -62
32 -75 -4 -11 -11 -11 -43 1 -46 16 -80 18 -88 4 -4 -6 5 -10 20 -10 14 0 42
-8 63 -17 l37 -17 -30 -4 c-46 -6 -55 -22 -12 -22 30 0 37 -4 37 -20 0 -33
-55 -26 -104 13 -23 19 -59 46 -81 60 -22 15 -34 27 -28 27 19 0 43 29 36 45
-4 13 -10 12 -38 -5 -18 -11 -40 -18 -49 -15 -9 3 -23 7 -32 10 -12 4 -13 9
-6 18 6 6 11 17 11 22 1 6 4 10 9 10 4 1 24 7 46 14 28 10 35 16 25 22 -24 14
9 36 86 58 78 22 85 23 85 16z m-661 -31 c33 -13 40 -21 43 -47 3 -27 7 -32
30 -32 16 -1 33 -6 40 -13 17 -17 28 -15 54 13 13 14 25 25 28 25 10 0 -4 -43
-19 -60 -8 -9 -15 -22 -15 -29 0 -8 -7 -10 -22 -5 -13 4 -61 18 -108 31 -47
12 -68 21 -47 19 50 -6 38 10 -14 19 -37 6 -40 9 -34 32 4 16 2 22 -5 18 -5
-3 -10 -13 -10 -21 0 -8 -7 -14 -16 -14 -12 0 -15 6 -10 25 4 14 2 25 -3 25
-5 0 -12 -10 -14 -22 -4 -19 -5 -18 -6 5 -1 28 0 29 42 22 23 -3 50 -9 60 -11
9 -3 17 -1 17 4 0 5 -19 14 -42 19 -34 9 -37 11 -16 12 15 0 45 -6 67 -15z
m50 -169 c2 -3 -1 -11 -7 -17 -7 -7 -12 -19 -12 -27 1 -11 7 -8 20 10 15 20
26 25 45 21 17 -3 23 -8 16 -16 -4 -6 -5 -20 -1 -31 8 -23 -33 -85 -57 -85 -8
0 -11 -4 -8 -10 3 -6 -1 -7 -9 -4 -11 4 -16 0 -16 -10 0 -9 -5 -16 -11 -16 -5
0 -7 5 -3 12 4 7 3 8 -4 4 -7 -4 -12 -14 -12 -22 0 -8 -10 -14 -26 -14 -22 0
-24 3 -15 14 8 10 9 16 1 21 -5 3 -10 12 -10 18 0 8 3 7 9 -2 11 -17 45 -7 38
12 -2 6 3 18 12 25 13 10 14 12 1 10 -20 -4 -15 43 5 55 12 6 12 12 2 30 -6
12 -16 26 -22 30 -5 5 5 6 24 3 19 -4 37 -8 40 -11z m1766 -620 c0 -16 -20
-26 -110 -56 -120 -40 -173 -65 -154 -71 7 -2 20 -43 30 -92 10 -48 23 -94 29
-102 19 -22 58 -16 163 25 96 39 97 39 97 16 0 -31 -12 -39 -123 -74 -109 -35
-152 -40 -143 -16 3 8 1 15 -4 15 -6 0 -10 -5 -10 -12 0 -32 -21 14 -31 67 -5
33 -17 89 -26 124 -23 93 -16 102 104 140 54 17 109 38 123 46 32 19 55 15 55
-10z m-1239 -440 c8 -31 -2 -113 -21 -186 -8 -30 -15 -68 -15 -86 0 -19 -10
-43 -24 -59 -21 -25 -30 -28 -87 -28 -102 1 -200 14 -192 27 4 6 0 8 -10 4
-10 -3 -24 -4 -32 -1 -19 8 -16 55 5 72 8 8 9 11 3 7 -16 -8 -16 -5 3 68 9 34
19 88 22 121 9 81 18 85 199 85 l143 0 6 -24z m-471 -246 c46 -16 50 -20 47
-47 -2 -22 4 -35 26 -54 27 -22 42 -25 150 -31 129 -7 160 -2 200 35 29 28 28
19 -7 -50 -36 -70 -92 -230 -116 -330 -29 -119 -85 -149 -224 -118 -92 21
-217 80 -233 110 -10 19 -8 19 17 -4 21 -19 27 -21 22 -7 -4 9 -2 17 4 17 6 0
7 5 4 10 -3 6 0 10 7 10 7 0 -1 12 -19 25 -21 17 -30 31 -27 43 3 9 8 23 10
31 3 10 10 10 32 -4 l27 -18 -23 25 c-23 25 -23 26 -7 88 9 34 17 81 18 104 0
22 5 44 10 47 6 4 3 20 -6 38 -14 29 -14 30 3 21 24 -13 105 -31 94 -21 -5 5
-30 16 -56 26 -28 10 -48 25 -51 36 -3 12 -1 17 6 12 6 -4 8 0 4 9 -7 21 3 30
22 22 9 -4 39 -15 66 -25z m1485 -255 c-22 -14 -23 -15 -4 -11 19 4 24 -3 38
-57 10 -33 35 -95 58 -136 85 -156 108 -203 108 -224 0 -52 -67 -97 -146 -98
-59 -1 -111 39 -235 179 -135 153 -199 235 -191 247 3 6 7 5 10 -2 2 -7 8 -9
13 -6 6 4 6 11 -1 19 -8 10 -8 19 1 33 12 19 14 20 53 4 23 -9 56 -24 73 -35
18 -10 38 -17 45 -15 7 3 -4 13 -25 23 -20 9 -40 23 -44 29 -4 6 5 3 21 -7 22
-15 38 -17 75 -12 63 10 74 19 26 25 -25 3 -41 11 -43 21 -2 12 8 16 55 17 32
1 72 6 88 11 45 14 53 12 25 -5z m-1352 -379 c18 2 37 7 42 10 6 4 9 -3 7 -15
-2 -12 -10 -26 -18 -31 -9 -6 -10 -9 -2 -9 15 0 28 -50 43 -160 6 -47 21 -112
32 -144 17 -52 18 -66 8 -102 -15 -52 -32 -69 -88 -84 -48 -12 -119 -2 -171
25 -60 31 -110 114 -130 217 -6 29 -13 64 -16 78 -10 49 -14 130 -5 130 5 0 7
-9 5 -21 -2 -12 0 -19 7 -17 6 2 13 13 14 23 2 11 11 25 20 32 10 7 13 13 7
13 -7 0 -15 -5 -19 -11 -5 -8 -10 -6 -16 5 -5 9 -14 14 -19 11 -5 -4 -6 -12
-3 -18 4 -8 2 -7 -7 1 -12 11 -12 14 0 21 12 8 83 -3 104 -16 6 -4 23 -7 39
-7 20 -1 27 3 23 13 -4 11 -3 12 10 1 10 -8 15 -9 15 -1 0 6 5 11 11 11 6 0 9
-8 5 -17 -4 -12 0 -10 10 5 9 12 25 22 36 22 10 0 16 5 13 10 -4 6 -11 8 -16
5 -13 -9 -11 9 3 23 7 7 14 8 18 2 3 -5 20 -7 38 -5z"/>
<path d="M2879 1988 c-5 -9 -9 -36 -9 -60 0 -24 -9 -76 -20 -116 -11 -39 -20
-73 -20 -74 0 -13 247 -15 260 -2 5 5 -29 7 -81 5 -50 -1 -105 0 -124 3 -31 6
-33 9 -23 26 8 12 16 16 23 10 25 -21 168 -18 228 5 13 6 16 3 11 -11 -4 -15
-4 -16 4 -4 18 27 46 192 37 220 -4 12 -29 15 -141 15 -117 0 -137 -2 -145
-17z"/>
<path d="M2997 4914 c-2 -2 -42 -11 -88 -18 -46 -8 -102 -21 -123 -30 -21 -9
-49 -16 -62 -16 -12 0 -35 -5 -51 -11 -15 -7 -40 -11 -55 -10 -19 2 -36 -7
-55 -25 -15 -15 -48 -36 -73 -46 -41 -17 -42 -18 -10 -12 19 3 40 11 47 16 19
15 30 2 37 -44 4 -24 14 -53 22 -66 8 -12 12 -27 9 -32 -4 -6 1 -13 11 -17 16
-6 15 -7 -2 -20 -22 -16 -17 -16 25 -2 26 9 39 8 70 -5 34 -16 38 -21 40 -60
2 -48 -2 -53 -80 -96 -59 -32 -60 -39 -2 -15 19 8 45 15 57 15 19 -1 18 -2 -6
-16 -16 -8 -28 -20 -28 -26 0 -9 3 -9 12 0 15 15 38 16 38 2 0 -5 -6 -10 -12
-10 -37 -1 -40 -17 -13 -71 27 -53 65 -100 65 -79 0 6 -7 13 -15 16 -8 4 -15
15 -15 25 0 10 -4 19 -8 19 -5 0 -16 15 -25 34 l-16 35 72 29 c40 16 104 40
142 52 79 26 135 49 120 50 -5 0 -45 -12 -88 -26 -60 -20 -81 -23 -92 -14 -10
9 -16 7 -25 -7 -11 -17 -11 -17 -6 0 3 10 6 20 6 22 0 2 16 13 35 25 19 12 33
25 30 30 -3 5 9 20 27 35 l33 26 -58 -28 c-50 -24 -59 -25 -67 -13 -15 24 -11
34 8 19 15 -13 16 -12 3 4 -8 9 -16 15 -19 13 -6 -7 -48 46 -45 56 2 5 -2 7
-8 5 -20 -4 -21 21 0 28 10 3 25 13 33 22 10 12 3 11 -29 -5 -22 -12 -43 -27
-46 -34 -4 -10 -6 -10 -6 1 -1 11 -4 11 -16 1 -10 -9 -15 -9 -15 -1 0 10 13
15 33 12 13 -2 8 44 -8 65 -8 10 -15 15 -15 10 0 -5 -6 -3 -14 3 -20 17 -48 2
-44 -23 2 -15 9 -20 26 -19 13 2 21 -1 17 -7 -3 -6 -2 -10 4 -10 5 0 12 4 15
9 7 11 -22 23 -35 15 -5 -3 -9 -1 -9 4 0 16 13 22 27 11 7 -6 13 -8 13 -3 0
10 20 -17 20 -27 0 -3 -19 -14 -41 -25 -40 -18 -42 -18 -55 1 -21 29 -17 40 6
14 17 -20 16 -15 -6 36 -24 56 -25 61 -9 70 10 5 29 20 42 31 13 12 45 25 71
29 26 3 70 14 97 25 28 10 83 23 124 29 80 13 95 8 141 -41 24 -26 64 -148 53
-159 -5 -4 -26 -9 -48 -12 -38 -3 -37 -4 10 -5 56 -3 62 -5 93 -46 12 -16 22
-24 22 -19 0 6 -8 21 -18 34 -10 13 -26 44 -36 69 -10 25 -27 64 -37 88 -11
24 -17 47 -14 52 9 15 -16 58 -37 64 -20 5 -20 4 1 -15 28 -27 27 -47 -1 -23
-13 10 -25 22 -28 25 -8 9 -38 18 -43 13z"/>
<path d="M1770 3111 c-50 -16 -107 -50 -144 -88 -167 -169 -117 -445 100 -548
48 -23 72 -28 135 -29 63 0 85 5 140 31 60 28 129 86 150 125 8 16 7 16 -18 4
-62 -31 -131 -44 -147 -29 -4 4 -25 8 -47 9 -22 1 -46 7 -53 13 -9 7 -16 7
-26 -2 -10 -10 -12 -9 -7 6 4 11 3 16 -3 12 -6 -4 -17 1 -26 9 -8 9 -12 16 -8
16 3 0 1 7 -6 15 -7 8 -20 15 -29 15 -10 0 -12 -3 -5 -8 8 -5 5 -13 -7 -26
-11 -11 -19 -14 -19 -8 0 6 5 14 10 17 7 4 5 14 -5 28 -8 12 -15 29 -15 39 0
10 -4 18 -10 18 -5 0 -10 8 -10 17 0 9 -16 32 -36 50 -20 18 -33 33 -29 33 5
0 -5 12 -21 26 -19 17 -25 28 -16 31 6 3 10 9 6 14 -3 5 0 9 6 9 6 0 8 5 3 12
-17 28 3 99 36 126 28 23 102 54 150 62 41 7 42 8 11 8 -19 0 -46 -3 -60 -7z"/>
<path d="M1878 1923 c-27 -31 -38 -61 -38 -100 0 -121 146 -178 227 -89 18 20
33 41 33 48 -1 8 -6 6 -14 -4 -20 -27 -110 -24 -153 5 -18 12 -33 25 -33 30 0
4 -7 7 -15 7 -8 0 -15 5 -15 10 0 6 5 10 10 10 6 0 5 8 -2 20 -11 17 -10 26 4
50 19 34 18 38 -4 13z"/>
</g>
</svg>
